<svg xmlns="http://www.w3.org/2000/svg" viewBox="0 0 1200 630" width="1200" height="630">
  <defs>
    <linearGradient id="bg" x1="0" y1="0" x2="1" y2="1">
      <stop offset="0" stop-color="#2B2E31"/><stop offset="0.7" stop-color="#202225"/><stop offset="1" stop-color="#161719"/>
    </linearGradient>
  </defs>
  <rect width="1200" height="630" fill="url(#bg)"/>
  <!-- monogram watermark -->
  <g opacity="0.10" transform="translate(720,150) scale(1.6)" fill-rule="evenodd">
    <path transform="translate(118,14)" d="M44 28H120C156 28 178 48 178 79C178 107 160 124 128 128C162 132 186 152 186 184C186 214 160 232 122 232H44ZM80 62H116C140 62 152 70 152 87C152 104 138 112 116 112H80ZM80 150H120C146 150 158 161 158 184C158 207 144 214 120 214H80Z" fill="#4A4D52"/>
    <path transform="translate(0,14)" d="M44 28H128C164 28 184 54 184 90C184 122 164 146 132 150L188 232H140L98 156H80V232H44ZM80 64V120H124C142 120 150 108 150 90C150 70 142 64 124 64Z" fill="#A6A8AC"/>
  </g>
  <rect x="90" y="250" width="64" height="5" fill="#FF4F00"/>
  <text x="88" y="232" fill="#C3C5C9" font-family="Arial,Helvetica,sans-serif" font-size="26" letter-spacing="6">SELF STORAGE DESIGN &amp; CONSTRUCTION</text>
  <text x="86" y="350" font-family="Arial,Helvetica,sans-serif" font-weight="800" font-size="104" letter-spacing="2">
    <tspan fill="#FF4F00">REGIS</tspan><tspan fill="#FFFFFF">BUILT</tspan>
  </text>
  <text x="90" y="420" fill="#C3C5C9" font-family="Arial,Helvetica,sans-serif" font-size="32">Engineering-led builders · Australia &amp; New Zealand · Since 2003</text>
</svg>
