<svg xmlns="http://www.w3.org/2000/svg" viewBox="0 0 320 260" fill="none">
  <g fill-rule="evenodd">
    <path transform="translate(118,14)" d="M44 28H128C164 28 184 54 184 90C184 122 164 146 132 150L188 232H140L98 156H80V232H44ZM80 64V120H124C142 120 150 108 150 90C150 70 142 64 124 64Z" fill="#41526E"/>
    <path transform="translate(0,14)" d="M44 28H128C164 28 184 54 184 90C184 122 164 146 132 150L188 232H140L98 156H80V232H44ZM80 64V120H124C142 120 150 108 150 90C150 70 142 64 124 64Z" fill="#9AA6BA"/>
  </g>
</svg>
